<?xml version="1.0" encoding="utf-8"?>
<!-- Generator: Adobe Illustrator 22.0.1, SVG Export Plug-In . SVG Version: 6.00 Build 0)  -->
<svg version="1.1" id="Layer_1" xmlns="http://www.w3.org/2000/svg" xmlns:xlink="http://www.w3.org/1999/xlink" x="0px" y="0px"
	 viewBox="0 0 1272.9 360.9" style="enable-background:new 0 0 1272.9 360.9;" xml:space="preserve">
<style type="text/css">
	.st0{fill:#52C1EC;}
	.st1{fill:#FFFFFF;}
	.st2{fill:#101010;}
</style>
<g>
	<g>
		<path class="st0" d="M369.6,180.5c0,66.3-53.7,120-120,120s-120-53.7-120-120c0-27,8.9-51.9,24-72c-14.6-10.9-24-28.4-24-48h120
			C315.9,60.5,369.6,114.2,369.6,180.5z"/>
		<circle class="st1" cx="249.6" cy="180.5" r="91.6"/>
		<g>
			<path class="st2" d="M292.9,162.8c-1.2-3-4.3-3.4-6.4-0.8c0,0-4.1,5.1-10.6,5.1c-8.5,0-15.4-6.9-15.4-15.4c0-6,4.1-9.7,4.1-9.7
				c2.4-2.2,1.8-4.8-1.2-5.8c0,0-1.7-0.8-4.4-1.4c-2.6-0.6-6-1-9.4-1c-25.8,0-46.7,20.9-46.7,46.7s20.9,46.7,46.7,46.7
				s46.7-20.9,46.7-46.7C296.4,170.2,292.9,162.8,292.9,162.8z"/>
		</g>
	</g>
	<g>
		<g id="XMLID_110_">
			<path id="XMLID_128_" class="st1" d="M478.1,142.3v3.7h21.7l-3.9,23.5H478v70h-34.7v-70h-12.6V146h12.6v-5.4
				c0-19.3,12.8-34.8,39.6-34.8c10.2,0,21,3,27.5,6.5l-9.1,21.9c-4.9-2.6-9.8-3.5-13.7-3.5C481,130.6,478.1,133.6,478.1,142.3z"/>
			<path id="XMLID_125_" class="st1" d="M598.3,192.9c0,30.5-18.4,50.1-48.1,50.1c-29.4,0-48.1-17.9-48.1-50.4
				c0-30.5,18.4-50.1,48.1-50.1C579.5,142.5,598.3,160.4,598.3,192.9z M537.5,192.6c0,18.6,3.9,25.6,12.6,25.6
				c8.8,0,12.6-7.5,12.6-25.2c0-18.6-3.9-25.6-12.6-25.6C541.4,167.4,537.5,174.9,537.5,192.6z"/>
			<path id="XMLID_123_" class="st1" d="M662.7,239.5l-1.2-10.2c-6.5,9.1-15.9,13.7-27.7,13.7c-18.2,0-26.1-11.9-26.1-29.8V146h34.7
				v62.7c0,7.4,2.4,9.1,5.8,9.1c3.2,0,7-2.3,10.2-7.7V146H693v93.5H662.7z"/>
			<path id="XMLID_121_" class="st1" d="M773.8,144.6l-5.4,33.4c-3-0.9-5.6-1.4-8.6-1.4c-11.2,0-14.9,8.4-17.5,20.3v42.5h-34.7V146
				H738l2.8,17.5c3.9-12.3,13.3-20.5,23.6-20.5C768.1,143,770.5,143.6,773.8,144.6z"/>
			<path id="XMLID_118_" class="st1" d="M865,202.5h-56.7c1.9,13.5,8.6,15.9,18.7,15.9c6.7,0,13.1-2.6,21.2-8.2l14,18.9
				C853,236.7,840,243,823.7,243c-34.3,0-50.4-21.2-50.4-50.1c0-27.3,15.6-50.4,46.6-50.4c27.7,0,45.9,17.7,45.9,49
				C865.7,194.5,865.4,199.2,865,202.5z M831.6,181.7c-0.2-9.5-2.1-17.3-11-17.3c-7.4,0-11.2,4.2-12.4,18.6h23.5L831.6,181.7
				L831.6,181.7z"/>
			<path id="XMLID_116_" class="st1" d="M875.4,279.4l-3.7-23.6c17.9-1.8,25.4-5.8,30.3-16.3h-11.9L863.5,146h36.8l11.7,72.3
				l14.5-72.3h35.7l-28.7,93.3C925.6,265.2,906.7,278.5,875.4,279.4z"/>
			<path id="XMLID_113_" class="st1" d="M1051.6,202.5h-56.7c1.9,13.5,8.6,15.9,18.7,15.9c6.7,0,13.1-2.6,21.2-8.2l14,18.9
				c-9.3,7.5-22.2,13.8-38.5,13.8c-34.3,0-50.4-21.2-50.4-50.1c0-27.3,15.6-50.4,46.6-50.4c27.7,0,45.9,17.7,45.9,49
				C1052.3,194.5,1052,199.2,1051.6,202.5z M1018.2,181.7c-0.2-9.5-2.1-17.3-11-17.3c-7.4,0-11.2,4.2-12.4,18.6h23.5L1018.2,181.7
				L1018.2,181.7z"/>
			<path id="XMLID_111_" class="st1" d="M1135.1,154.6l-12.3,18.7c-6.7-4.2-14.7-6.8-20.8-6.8c-7.2,0-9.3,1.8-9.3,4.2
				c0,3.2,1.1,4.6,18.7,10c17.7,5.4,27.5,13.1,27.5,30.1c0,19.3-18.4,32.2-44.3,32.2c-16.5,0-31.5-5.8-41.1-14.9l16.5-18.2
				c6.7,5.3,15.2,9.3,23.5,9.3c6.5,0,10.2-1.9,10.2-5.8c0-4.5-1.9-5.4-18-10.3c-17.5-5.3-27.1-15.2-27.1-30.3
				c0-16.8,14.5-30.3,40.8-30.3C1113.1,142.5,1126.6,147.2,1135.1,154.6z"/>
		</g>
		<path class="st1" d="M1154,115.7c9,0,15,6.7,15,15.1s-6,15.1-15.1,15.1s-14.9-6.7-14.9-15.1S1144.8,115.7,1154,115.7z
			 M1153.9,142.6c7.1,0,11.5-4.9,11.5-11.8S1161,119,1154,119c-7.2,0-11.5,4.9-11.5,11.8C1142.5,137.6,1146.8,142.6,1153.9,142.6z
			 M1154.7,122.8c3.6,0,6,1.2,6,4.6c0,2.3-1.3,4-3.8,4.5c2.5,0.4,3.2,2.5,4,7.3h-3.4c-1-4.3-1.5-6-3.6-6h-2.7v6h-3.4v-16.4
			C1147.8,122.8,1154.7,122.8,1154.7,122.8z M1151.1,130.5h1.8c2.7,0,4.4-0.5,4.4-2.7c0-1.7-1-2.1-2.9-2.1h-3.2v4.8H1151.1z"/>
	</g>
</g>
</svg>
